<?xml version="1.0" encoding="UTF-8"?>
<!DOCTYPE svg  PUBLIC '-//W3C//DTD SVG 20010904//EN'  'http://www.w3.org/TR/2001/REC-SVG-20010904/DTD/svg10.dtd'>
<svg height="64px" version="1.0" viewBox="0 0 1920 1080" xmlns="http://www.w3.org/2000/svg">
<style>
g {
    fill: #0f172a
}
@media ( prefers-color-scheme: dark ) {
    g {
        fill: #e2e8f0
    }
}
</style>
<g transform="translate(0 1080) scale(.1 -.1)">
<path d="m3140 8049c-428-53-831-323-1014-678-105-205-127-337-133-813l-5-358h-184-184v-430-430h185 185v-1030-1030h515 515v1030 1030h360 360v430 430h-361-361l5 318c3 174 10 340 16 367 27 125 100 219 194 253 128 45 279 22 495-75 9-4 12 88 12 441v446l-37 16c-66 27-180 62-240 73-86 16-238 21-323 10z"/>
<path d="m4100 5655v-2375h615 615v2375 2375h-615-615v-2375z"/>
<path d="m13360 6583c-304-32-549-148-752-355l-88-88v175 175h-570-570v-2420-2420h570 570v961 961l68-62c137-125 316-229 489-283 285-91 644-87 940 9 98 32 281 119 370 176 350 227 618 625 711 1058 86 396 37 827-133 1187-273 576-842 939-1460 931-60-1-126-3-145-5zm65-1003c306-94 503-350 521-675 8-136-11-221-78-355-45-90-66-118-143-196s-104-98-185-137c-208-101-421-102-625-4-165 80-273 185-351 342-52 105-74 197-74 315 0 116 22 208 73 315 106 219 280 360 507 410 91 21 263 13 355-15z"/>
<path d="m6950 6544c-304-39-533-139-729-320-269-249-469-681-531-1147-15-118-12-403 6-526 38-264 128-499 271-713 232-348 509-540 888-614 129-26 409-26 525 0 344 75 623 280 857 631 77 116 159 257 214 368 24 48 47 87 50 87 4 0 15-24 25-52 44-133 162-367 255-505 274-406 560-567 979-550 359 15 618 121 837 343 218 222 424 655 488 1027 54 320 34 676-56 950-162 497-593 901-1069 1003-104 22-369 26-475 6-273-50-525-194-694-396-119-141-318-451-421-655-17-34-34-61-38-60-4 0-39 66-79 147-241 492-461 756-739 889-137 65-223 84-389 88-77 2-156 1-175-1zm3154-668c293-76 550-295 656-559 53-132 64-196 64-372 0-132-4-176-22-248-79-317-292-567-575-677-139-55-261-74-472-74-203-1-272 8-402 50-285 93-506 283-643 553-16 33-30 74-30 90 0 52 248 524 395 751 224 347 367 464 622 510 90 17 298 4 407-24zm-2835-72c375-55 611-238 825-637l44-82-24-85c-111-380-354-757-614-952-261-196-594-250-905-147-159 53-275 138-379 276-322 429-296 958 68 1341 167 175 332 252 636 296 67 9 254 4 349-10z"/>
<path d="m17446 6529c-172-22-346-87-493-184-105-70-258-221-328-324l-50-73-3 261-2 261h-570-570v-1615-1615h569 570l4 803c3 700 6 812 20 877 45 202 101 314 212 426 65 66 96 89 165 122 133 63 208 77 395 76 200-1 270-16 473-101 9-4 12 108 12 540v544l-37 7c-53 8-285 5-367-5z"/>
</g>
</svg>
