<?xml version="1.0" encoding="UTF-8"?>
<!DOCTYPE svg  PUBLIC '-//W3C//DTD SVG 20010904//EN'  'http://www.w3.org/TR/2001/REC-SVG-20010904/DTD/svg10.dtd'>
<svg version="1.0" viewBox="0 0 1250 1250" xmlns="http://www.w3.org/2000/svg">
<style>
g {
    fill: #e2e8f0
}
</style>
<g transform="translate(0 1250) scale(.1 -.1)">
<path d="m7130 11840c-448-42-874-135-1368-300-902-300-1720-757-2451-1369-279-233-667-614-867-852-316-376-568-742-766-1115-378-712-599-1447-695-2309-25-226-25-824 0-1040 95-800 382-1521 865-2175 300-406 669-785 1020-1049 264-199 444-307 877-524 443-222 830-361 1260-450 169-36 405-69 582-82 205-15 581-6 813 21 541 61 1156 253 1740 543 733 365 1307 802 1865 1421 490 544 957 1322 1268 2110 276 699 449 1478 501 2245 27 404 14 942-29 1222-2 12-9 57-15 100-31 212-115 559-200 828-177 557-452 1006-859 1403-462 451-928 781-1408 1001-407 186-778 293-1213 352-125 17-219 22-490 24-184 2-378-1-430-5zm-515-1914c801-124 1481-493 2166-1176 765-763 1170-1604 1215-2525 20-419-86-1058-283-1700-31-99-62-202-70-228-13-43-22-53-84-93-122-78-418-235-624-332-777-364-1699-614-2520-683-197-16-627-14-810 4-699 71-1273 291-1795 687-207 157-509 459-674 675-342 446-531 874-607 1375-28 188-31 537-5 735 113 878 443 1602 988 2170 274 286 525 483 834 656 450 252 951 398 1554 453 110 10 618-3 715-18z"/>
<path d="m5420 9135c-312-51-602-202-825-429-196-199-296-403-341-693-12-80-17-206-21-490l-5-383h-199-199v-465-465h200 200v-1115-1115h555 555v1115 1115h390 390v465 465h-391-391l5 338c6 369 15 443 64 533 15 28 47 68 71 89 114 101 320 105 550 10l92-38v483 483l-87 32c-162 59-227 72-383 76-95 2-174-2-230-11z"/>
<path d="m6690 6515v-2535h660 660v2535 2535h-660-660v-2535z"/>
</g>
</svg>
