<?xml version="1.0" standalone="no"?>
<!DOCTYPE svg PUBLIC "-//W3C//DTD SVG 20010904//EN"
 "http://www.w3.org/TR/2001/REC-SVG-20010904/DTD/svg10.dtd">
<svg version="1.0" xmlns="http://www.w3.org/2000/svg"
 width="700.000000pt" height="700.000000pt" viewBox="0 0 700.000000 700.000000"
 preserveAspectRatio="xMidYMid meet">
<metadata>
Created by potrace 1.14, written by Peter Selinger 2001-2017
</metadata>
<g transform="translate(0.000000,700.000000) scale(0.100000,-0.100000)"
fill="#000000" stroke="none">
<path d="M3853 6614 c-460 -67 -999 -262 -1435 -521 -701 -414 -1271 -1027
-1570 -1685 -138 -306 -229 -622 -284 -988 -21 -144 -30 -527 -15 -671 25
-242 88 -489 182 -715 190 -460 587 -937 1012 -1215 127 -83 387 -220 557
-292 527 -224 1088 -268 1625 -127 782 206 1495 711 1947 1382 390 579 613
1180 705 1903 25 200 25 711 0 875 -53 339 -157 671 -278 883 -89 156 -171
260 -329 417 -234 234 -447 392 -699 519 -242 122 -483 200 -732 236 -135 19
-552 19 -686 -1z m-32 -1078 c269 -62 462 -145 685 -295 215 -145 457 -369
626 -581 336 -421 500 -914 459 -1375 -21 -238 -72 -489 -159 -775 l-37 -125
-55 -36 c-162 -108 -508 -266 -790 -359 -721 -241 -1375 -275 -1885 -100 -295
101 -547 266 -771 503 -256 271 -410 559 -470 882 -26 139 -23 396 5 558 74
425 225 755 481 1050 291 337 662 553 1100 641 201 41 252 45 485 41 190 -3
234 -7 326 -29z"/>
<path d="M2963 5100 c-147 -41 -275 -114 -381 -219 -166 -164 -212 -313 -212
-698 l0 -182 -112 -3 -113 -3 -3 -257 -2 -258 115 0 115 0 0 -625 0 -625 310
0 310 0 0 625 0 625 220 0 220 0 0 260 0 260 -221 0 -222 0 6 203 c3 111 11
219 17 240 17 57 71 112 125 127 59 17 145 7 229 -24 l66 -25 -2 271 -3 271
-70 25 c-100 35 -288 41 -392 12z"/>
<path d="M3750 3650 l0 -1420 370 0 370 0 -2 1418 -3 1417 -367 3 -368 2 0
-1420z"/>
</g>
</svg>
